<svg width="876" height="272" viewBox="0 0 876 272" fill="none" xmlns="http://www.w3.org/2000/svg">
<g clip-path="url(#clip0)">
<path d="M92.6 57H129.2V170.4H92.6V156.7C82.7 172 68.4 174.2 59 174.2C42.7 174.2 29 170.1 16.5 156.9C4.6 144.2 0 129.5 0 114.5C0 95.4 7.1 79.1 17.5 68.7C27.4 58.8 41.2 53.2 56.9 53.2C66.6 53.2 82.1 55.5 92.5 69.7V57H92.6ZM46 92.8C42.2 96.6 37.6 103.2 37.6 113.4C37.6 123.6 41.9 130.2 45.2 133.7C50.3 139 58.2 142.6 66.8 142.6C74.2 142.6 81 139.5 85.9 134.7C90.7 130.1 94.8 123 94.8 113.3C94.8 105.2 91.7 97.5 86.4 92.4C80.8 87.1 72.7 84.5 66.1 84.5C58.2 84.7 50.9 88 46 92.8Z" fill="#1A1348"/>
<path d="M195.3 0V69.7C204.5 57.2 218.2 53.2 230.7 53.2C246.2 53.2 260.2 59 270.1 68.5C281 78.9 287.9 94.4 287.9 113.3C287.9 130.8 281.8 147.1 270.1 158.8C260.2 169 248 174.3 231.2 174.3C211.1 174.3 200.9 164.9 195.3 156.8V170.5H158.7V0H195.3ZM201.2 93.1C196.9 97.7 193.1 104.3 193.1 114C193.1 123.4 197.2 130.3 201.5 134.3C207.3 139.9 215.5 142.7 222.4 142.7C228.8 142.7 235.9 140.2 241.5 134.8C246.8 129.7 250.4 122.3 250.4 113.9C250.4 104.7 246.8 97.4 241.5 92.3C235.7 86.7 229.3 84.7 221.9 84.7C213.9 84.7 207 87 201.2 93.1Z" fill="#1A1348"/>
<path d="M419.6 102.8C409.4 113 392.1 121.1 370 121.1C347.9 121.1 330.6 113 320.4 102.8C309 91.4 303.4 75.1 303.4 60.6C303.4 46.1 309 29.8 320.4 18.4C330.6 8.20001 347.9 0.100006 370 0.100006C392.1 0.100006 409.4 8.20001 419.6 18.4C431 29.8 436.6 46.1 436.6 60.6C436.6 75.1 431 91.4 419.6 102.8ZM349.4 39.2C344.1 44.5 341 51.4 341 60.6C341 71 345.1 77.6 349.4 82C354 86.6 360.6 90.1 370.3 90.1C378.4 90.1 385.3 87.3 390.6 82C395.9 76.7 399 69.8 399 60.6C399 51.4 395.9 44.6 390.6 39.2C385.3 33.9 378.4 31.1 370 31.1C361.6 31.1 354.7 33.9 349.4 39.2Z" fill="#1A1348"/>
<path d="M607.3 57H643.9V70.5C655.1 56.3 668.3 54 679 54C688.9 54 701.9 55.8 711.6 65.4C722.3 76 723 89.5 723 98.7V170.4H686.4V112.2C686.4 104.8 686.1 95.4 680.3 89.6C677.5 86.8 672.9 84.5 666.3 84.5C658.7 84.5 653.8 87.6 651 90.6C644.9 96.7 643.9 104.8 643.9 112.2V170.4H607.3V57Z" fill="#1A1348"/>
<path d="M577 167.4H540.4V153.9C529.2 168.1 516 170.4 505.3 170.4C495.4 170.4 482.4 168.6 472.7 159C462 148.3 461.3 134.8 461.3 125.7V53.9H497.9V112.1C497.9 119.5 498.2 128.9 504 134.7C506.8 137.5 511.4 139.8 518 139.8C525.6 139.8 530.5 136.7 533.3 133.7C539.4 127.6 540.4 119.5 540.4 112.1V53.9H577V167.4Z" fill="#1A1348"/>
<path d="M875.1 170.4H838.5V156.7C832.9 164.8 822.7 174.2 802.6 174.2C785.8 174.2 773.6 168.9 763.7 158.7C752 147 745.9 130.7 745.9 113.2C745.9 94.4 752.8 78.9 763.7 68.4C773.6 59 787.6 53.1 803.1 53.1C815.6 53.1 829.3 57.2 838.5 69.6V0H875.1V170.4ZM792.5 92.3C787.2 97.4 783.6 104.8 783.6 113.9C783.6 122.3 787.2 129.7 792.5 134.8C798.1 140.1 805.2 142.7 811.6 142.7C818.5 142.7 826.6 139.9 832.5 134.3C836.8 130.2 840.9 123.4 840.9 114C840.9 104.3 837.1 97.7 832.8 93.1C827 87 820.1 84.7 812.2 84.7C804.7 84.7 798.3 86.7 792.5 92.3Z" fill="#1A1348"/>
<path d="M338.5 173.4C346.2 165.9 357.5 161.2 370 161.2C382.5 161.2 393.8 165.9 401.5 173.4H439.9C429.2 147.4 401.9 128.8 370 128.8C338.1 128.8 310.7 147.4 300.1 173.4H338.5Z" fill="#5ABE8D"/>
<path d="M570.1 237.4H593.8V215.7H604.7V271.8H593.8V246.8H570.1V271.8H559.2V215.7H570.1V237.4Z" fill="#1A1348"/>
<path d="M657.2 225.1H637V237.6H656.4V247H637V262.3H657.2V271.7H626V215.6H657.1V225.1H657.2Z" fill="#1A1348"/>
<path d="M709.5 260H686.9L681.9 271.8H670L694.2 215.7H702.8L726.3 271.8H714.5L709.5 260ZM706.3 251.1L698.3 230.9L690.3 251.1H706.3Z" fill="#1A1348"/>
<path d="M752.1 215.6V262.3H769.4V271.7H741.1V215.6H752.1Z" fill="#1A1348"/>
<path d="M801.6 225.1V271.8H790.7V225.1H778.1V215.7H814.3V225.1H801.6Z" fill="#1A1348"/>
<path d="M840.5 237.4H864.2V215.7H875.1V271.8H864.2V246.8H840.5V271.8H829.6V215.7H840.5V237.4Z" fill="#1A1348"/>
</g>
<defs>
<clipPath id="clip0">
<rect width="875.2" height="271.8" fill="white"/>
</clipPath>
</defs>
</svg>
